HIERARCHY
ROOT Hips
{
  OFFSET 48.3305 99.1266 34.9327
  CHANNELS 6 Xposition Yposition Zposition Zrotation Xrotation Yrotation
  JOINT spine
  {
    OFFSET 0 8.30104 0.477351
    CHANNELS 3 Zrotation Xrotation Yrotation
    JOINT spine1
    {
      OFFSET 0 10.4565 0
      CHANNELS 3 Zrotation Xrotation Yrotation
      JOINT spine2
      {
        OFFSET 0 10.0192 0
        CHANNELS 3 Zrotation Xrotation Yrotation
        JOINT Neck
        {
          OFFSET 0 25.7235 1.22641
          CHANNELS 3 Zrotation Xrotation Yrotation
          JOINT Head
          {
            OFFSET 0 7.77175 0
            CHANNELS 3 Zrotation Xrotation Yrotation
            End Site
            {
              OFFSET 0 18.812 -6.20394
            }
          }
        }
        JOINT RightShoulder
        {
          OFFSET -4.2188 10.82 -0.587439
          CHANNELS 3 Zrotation Xrotation Yrotation
          JOINT RightArm
          {
            OFFSET 0 14.1914 0
            CHANNELS 3 Zrotation Xrotation Yrotation
            JOINT RightArmRoll
            {
              OFFSET 0 7.16408 0
              CHANNELS 3 Zrotation Xrotation Yrotation
              JOINT RightForeArm
              {
                OFFSET 0 20.8665 0
                CHANNELS 3 Zrotation Xrotation Yrotation
                JOINT RightForeArmRoll
                {
                  OFFSET 0 8.03921 0
                  CHANNELS 3 Zrotation Xrotation Yrotation
                  JOINT RightHand
                  {
                    OFFSET 0 16.133 0
                    CHANNELS 3 Zrotation Xrotation Yrotation
                    End Site
                    {
                      OFFSET 0 0 0
                    }
                  }
                }
              }
            }
          }
        }
        JOINT LeftShoulder
        {
          OFFSET 4.2188 10.82 -0.587439
          CHANNELS 3 Zrotation Xrotation Yrotation
          JOINT LeftArm
          {
            OFFSET 0 14.1914 0
            CHANNELS 3 Zrotation Xrotation Yrotation
            JOINT LeftArmRoll
            {
              OFFSET 0 7.16408 0
              CHANNELS 3 Zrotation Xrotation Yrotation
              JOINT LeftForeArm
              {
                OFFSET 0 20.8665 0
                CHANNELS 3 Zrotation Xrotation Yrotation
                JOINT LeftForeArmRoll
                {
                  OFFSET 0 8.03921 0
                  CHANNELS 3 Zrotation Xrotation Yrotation
                  JOINT LeftHand
                  {
                    OFFSET 0 16.133 0
                    CHANNELS 3 Zrotation Xrotation Yrotation
                    End Site
                    {
                      OFFSET 0 0 0
                    }
                  }
                }
              }
            }
          }
        }
      }
    }
  }
  JOINT RightUpLeg
  {
    OFFSET -7.35773 -1.34921 -1.13182
    CHANNELS 3 Zrotation Xrotation Yrotation
    JOINT RightUpLegRoll
    {
      OFFSET 0 18.9168 0
      CHANNELS 3 Zrotation Xrotation Yrotation
      JOINT RightLeg
      {
        OFFSET 0 -23.4256 0
        CHANNELS 3 Zrotation Xrotation Yrotation
        JOINT RightLegRoll
        {
          OFFSET 0 23.5023 0
          CHANNELS 3 Zrotation Xrotation Yrotation
          JOINT RightFoot
          {
            OFFSET 0 19.5617 0
            CHANNELS 3 Zrotation Xrotation Yrotation
            JOINT RightToeBase
            {
              OFFSET 0 16.3526 0
              CHANNELS 3 Zrotation Xrotation Yrotation
              End Site
              {
                OFFSET 0.00693125 7.91943 -0.912837
              }
            }
          }
        }
      }
    }
  }
  JOINT LeftUpLeg
  {
    OFFSET 7.35773 -1.34921 -1.13182
    CHANNELS 3 Zrotation Xrotation Yrotation
    JOINT LeftUpLegRoll
    {
      OFFSET 0 18.9169 0
      CHANNELS 3 Zrotation Xrotation Yrotation
      JOINT LeftLeg
      {
        OFFSET 0 23.4255 0
        CHANNELS 3 Zrotation Xrotation Yrotation
        JOINT LeftLegRoll
        {
          OFFSET 0 23.7195 0
          CHANNELS 3 Zrotation Xrotation Yrotation
          JOINT LeftFoot
          {
            OFFSET 0 19.3444 0
            CHANNELS 3 Zrotation Xrotation Yrotation
            JOINT LeftToeBase
            {
              OFFSET 0 16.3526 0
              CHANNELS 3 Zrotation Xrotation Yrotation
              End Site
              {
                OFFSET -0.0310629 7.91943 -0.912837
              }
            }
          }
        }
      }
    }
  }
}
MOTION
Frames: 12
Frame Time: 0.00208333
48.0162 83.0438 15.7472 -0.80135 14.8144 0.0806647 0.539966 1.46959 0.0967353 1.0805 6.94232 0.109262 1.08171 8.58725 0.0913115 -5.84338 -9.95326 -0.795521 2.16265 -8.1979 -0.800823 58.771 -3.79804 -2.35002 115.613 29.8069 0.0751119 -3.68994e-015 3.97569e-016 -1.19271e-015 14.106 32.9422 -5.23977 -7.67762e-007 2.81228e-006 -3.00631 8.02919 -4.95091 0.697485 -60.528 -4.46035 2.88502 -107.248 24.9891 9.36344 -1.39149e-015 0 1.59028e-015 -15.6158 43.6904 7.39478 4.94736e-006 7.78457e-007 2.99998 -8.02934 -4.95114 -0.697582 158.086 56.9841 25.0283 180 1.52569e-005 179.109 163.615 61.5758 -171.525 1.59745e-006 7.66181e-007 1.1772 -35.0906 76.4426 32.6471 8.33669 28.1301 -3.57959 -151.458 57.0624 -29.3457 4.5067e-006 -1.99009e-005 -0.798666 -13.8184 -64.7584 -7.75481 5.41965e-008 -5.43316e-006 -1.29431 26.5227 74.7831 -27.7525 -8.61578 31.9295 3.70662 
48.026 83.2166 15.8375 -0.791532 14.7543 0.0846159 0.541007 1.45689 0.0994654 1.08247 6.91695 0.114691 1.08362 8.56188 0.096704 -5.90072 -9.8755 -0.801977 2.20163 -8.20335 -0.808565 58.7579 -3.79836 -2.34918 115.651 29.8302 0.262487 -9.06955e-016 1.19271e-015 -1.78906e-015 13.9963 32.4371 -5.113 -7.67762e-007 2.81228e-006 -3.00631 8.02919 -4.95091 0.697485 -60.5934 -4.42664 2.86953 -107.198 24.9432 9.29328 -4.96962e-015 0 -1.59028e-015 -15.6315 43.4154 7.34117 4.94736e-006 7.78457e-007 2.99998 -8.02934 -4.95114 -0.697582 158.342 56.6888 24.719 180 1.52569e-005 179.11 163.716 61.2385 -171.646 1.59745e-006 7.66181e-007 1.16876 -34.885 76.3693 32.4506 8.33819 28.1514 -3.58053 -151.797 56.7876 -28.9562 4.5067e-006 -1.99009e-005 -0.798441 -13.755 -64.4129 -7.66126 5.41965e-008 -5.43316e-006 -1.28093 26.3827 74.7072 -27.6164 -8.617 31.9466 3.70762 
48.0147 83.3731 15.9182 -0.781455 14.6939 0.088639 0.542025 1.44409 0.102231 1.08442 6.89136 0.120215 1.08549 8.53629 0.102191 -5.95765 -9.79529 -0.808611 2.24093 -8.21049 -0.816562 58.7458 -3.799 -2.34861 115.686 29.8524 0.449477 -1.49089e-016 -3.97569e-016 -1.59028e-015 13.8871 31.9357 -4.98835 -7.67762e-007 2.81228e-006 -3.00631 8.02919 -4.95091 0.697485 -60.6592 -4.39186 2.85345 -107.146 24.897 9.22289 4.37326e-015 -2.38542e-015 -0 -15.6464 43.1433 7.28769 4.94736e-006 7.78457e-007 2.99998 -8.02934 -4.95114 -0.697582 158.594 56.3929 24.4147 180 1.5257e-005 179.111 163.816 60.9012 -171.767 1.59745e-006 7.66181e-007 1.1604 -34.6798 76.2954 32.2549 8.3397 28.1728 -3.58146 -152.132 56.5119 -28.5711 4.5067e-006 -1.99009e-005 -0.798264 -13.6919 -64.0667 -7.56859 5.41965e-008 -5.43316e-006 -1.26759 26.2433 74.6308 -27.481 -8.61819 31.9632 3.70862 
48.0121 83.5438 16.0076 -0.771196 14.6331 0.0928062 0.542973 1.43121 0.104987 1.08625 6.86565 0.125742 1.08726 8.51057 0.107682 -6.01368 -9.71266 -0.815068 2.2804 -8.21926 -0.824448 58.7349 -3.79983 -2.34826 115.719 29.8738 0.636308 -8.92046e-015 3.97569e-016 -1.19271e-015 13.7781 31.4375 -4.86573 -7.67762e-007 2.81228e-006 -3.00631 8.02919 -4.95091 0.697485 -60.7244 -4.3566 2.83705 -107.094 24.8508 9.15193 -9.93923e-015 2.38542e-015 -0 -15.6602 42.8725 7.23404 4.94736e-006 7.78457e-007 2.99998 -8.02934 -4.95114 -0.697582 158.84 56.0962 24.1151 180 1.5257e-005 179.111 163.916 60.5636 -171.886 1.59745e-006 7.66181e-007 1.15211 -34.475 76.2207 32.06 8.34121 28.1941 -3.58238 -152.463 56.2351 -28.1906 4.5067e-006 -1.99009e-005 -0.798127 -13.6289 -63.7199 -7.47667 5.41965e-008 -5.43316e-006 -1.2543 26.1046 74.554 -27.3463 -8.61934 31.9795 3.7096 
48.0053 83.6942 16.0935 -0.760835 14.5718 0.0971902 0.543809 1.41832 0.107688 1.0879 6.83989 0.131184 1.08885 8.48481 0.113091 -6.0683 -9.62764 -0.820993 2.3199 -8.2296 -0.831854 58.7258 -3.80072 -2.34809 115.75 29.8951 0.823212 1.6524e-015 -5.96354e-016 -1.59028e-015 13.6692 30.9422 -4.74503 -7.67762e-007 2.81228e-006 -3.00631 8.02919 -4.95091 0.697485 -60.7881 -4.32144 2.82061 -107.044 24.8049 9.08008 -8.74653e-015 0 -1.59028e-015 -15.6727 42.6014 7.17993 4.94736e-006 7.78457e-007 2.99998 -8.02934 -4.95114 -0.697582 159.083 55.7987 23.8199 180 1.5257e-005 179.112 164.015 60.2255 -172.004 1.59745e-006 7.66181e-007 1.14387 -34.2705 76.1454 31.8658 8.3427 28.2152 -3.58328 -152.789 55.9573 -27.8146 4.5067e-006 -1.99009e-005 -0.798021 -13.566 -63.3727 -7.38537 5.41965e-008 -5.43316e-006 -1.2411 25.9663 74.4766 -27.2122 -8.62047 31.9956 3.71057 
47.9832 83.8448 16.1739 -0.75045 14.5098 0.101863 0.544487 1.40545 0.110289 1.08928 6.81417 0.13645 1.09016 8.4591 0.118327 -6.12102 -9.54025 -0.826032 2.35926 -8.24146 -0.83841 58.7187 -3.80156 -2.34805 115.779 29.9167 1.01042 -1.16413e-014 3.97569e-016 -1.59028e-015 13.5601 30.4495 -4.62618 -7.67762e-007 2.81228e-006 -3.00631 8.02919 -4.95091 0.697485 -60.8493 -4.28697 2.80441 -106.996 24.7597 9.00699 -1.03368e-014 -2.38542e-015 -0 -15.6837 42.3284 7.12508 4.94736e-006 7.78457e-007 2.99998 -8.02934 -4.95114 -0.697582 159.321 55.5003 23.5288 180 1.5257e-005 179.113 164.114 59.8867 -172.122 1.59745e-006 7.66181e-007 1.13567 -34.0662 76.0695 31.6724 8.34417 28.236 -3.58416 -153.111 55.6783 -27.4429 4.5067e-006 -1.99009e-005 -0.797937 -13.5029 -63.0252 -7.29456 5.41965e-008 -5.43316e-006 -1.228 25.8284 74.3986 -27.0787 -8.6216 32.0116 3.71153 
47.987 84.0106 16.2634 -0.740119 14.4471 0.106897 0.544964 1.39265 0.112745 1.09031 6.78859 0.141448 1.09113 8.43351 0.123302 -6.17136 -9.45052 -0.829831 2.39836 -8.25478 -0.843748 58.7141 -3.80222 -2.34809 115.805 29.9393 1.19819 2.58669e-014 -1.19271e-015 -2.38542e-015 13.4507 29.959 -4.50908 -7.67762e-007 2.81228e-006 -3.00631 8.02919 -4.95091 0.697485 -60.907 -4.25379 2.78873 -106.952 24.7155 8.93235 -2.06736e-014 3.97569e-015 -0 -15.693 42.0518 7.06925 4.94736e-006 7.78457e-007 2.99998 -8.02934 -4.95114 -0.697582 159.556 55.2006 23.2414 180 1.5257e-005 179.114 164.213 59.547 -172.238 1.59745e-006 7.66181e-007 1.12747 -33.8622 75.9929 31.4797 8.3456 28.2562 -3.58502 -153.429 55.3981 -27.0756 4.5067e-006 -1.99009e-005 -0.797866 -13.4395 -62.6776 -7.20413 5.41965e-008 -5.43316e-006 -1.21502 25.6909 74.3202 -26.9457 -8.62274 32.0276 3.71246 
47.9853 84.1869 16.3399 -0.729918 14.3834 0.112364 0.545196 1.37996 0.115011 1.09092 6.76323 0.14609 1.09168 8.40815 0.127929 -6.21882 -9.35847 -0.832037 2.43703 -8.26951 -0.8475 58.7123 -3.80258 -2.34817 115.828 29.9633 1.38674 -6.70898e-016 0 -1.19271e-015 13.3409 29.4704 -4.39367 -7.67762e-007 2.81228e-006 -3.00631 8.02919 -4.95091 0.697485 -60.9602 -4.22246 2.77385 -106.914 24.6726 8.85582 3.57812e-015 0 -3.18055e-015 -15.7006 41.77 7.01218 4.94736e-006 7.78457e-007 2.99998 -8.02934 -4.95114 -0.697582 159.787 54.8997 22.9576 180 1.5257e-005 179.114 164.311 59.2062 -172.354 1.59745e-006 7.66181e-007 1.11927 -33.6584 75.9156 31.2878 8.34697 28.2758 -3.58584 -153.743 55.1165 -26.7126 4.5067e-006 -1.99009e-005 -0.797799 -13.3755 -62.33 -7.11395 5.41965e-008 -5.43316e-006 -1.20219 25.5536 74.2412 -26.8131 -8.62389 32.0437 3.71338 
47.9719 84.3496 16.4313 -0.719926 14.3187 0.118337 0.545137 1.36742 0.117041 1.09101 6.73817 0.150285 1.09172 8.38309 0.132116 -6.26292 -9.26414 -0.832296 2.47513 -8.28559 -0.849295 58.7137 -3.80252 -2.34825 115.849 29.9892 1.57634 2.18663e-015 -3.97569e-016 -1.59028e-015 13.2304 28.9834 -4.27987 -7.67762e-007 2.81228e-006 -3.00631 8.02919 -4.95091 0.697485 -61.0079 -4.19358 2.76003 -106.882 24.6313 8.77707 -1.78906e-015 -7.95139e-016 -0 -15.7062 41.4815 6.95365 4.94736e-006 7.78457e-007 2.99998 -8.02934 -4.95114 -0.697582 160.015 54.5974 22.677 180 1.5257e-005 179.115 164.409 58.864 -172.468 1.59745e-006 7.66181e-007 1.11106 -33.4547 75.8378 31.0966 8.34829 28.2945 -3.58662 -154.053 54.8335 -26.3539 4.5067e-006 -1.99009e-005 -0.797727 -13.311 -61.9825 -7.02392 5.41965e-008 -5.43316e-006 -1.18953 25.4164 74.1616 -26.6808 -8.62506 32.0601 3.71426 
47.9674 84.5219 16.5188 -0.710218 14.2529 0.124887 0.544744 1.35509 0.118791 1.09052 6.71351 0.153943 1.09118 8.35843 0.135778 -6.30317 -9.16755 -0.830257 2.51251 -8.30296 -0.848767 58.7187 -3.80191 -2.34827 115.867 30.0177 1.76723 2.49723e-014 -7.95139e-016 -1.59028e-015 13.1191 28.4975 -4.16762 -7.67762e-007 2.81228e-006 -3.00631 8.02919 -4.95091 0.697485 -61.0492 -4.16774 2.74757 -106.859 24.5919 8.69576 1.2921e-014 -3.18055e-015 -0 -15.7098 41.1844 6.89344 4.94736e-006 7.78457e-007 2.99998 -8.02934 -4.95114 -0.697582 160.239 54.2934 22.3993 180 1.5257e-005 179.115 164.506 58.5202 -172.581 1.59745e-006 7.66181e-007 1.1028 -33.2511 75.7593 30.9062 8.34953 28.3123 -3.58736 -154.36 54.5491 -25.9995 4.5067e-006 -1.99009e-005 -0.797641 -13.2457 -61.6353 -6.93392 5.41965e-008 -5.43316e-006 -1.17705 25.2793 74.0815 -26.5488 -8.62628 32.0769 3.71511 
47.9566 84.6787 16.6005 -0.700872 14.1859 0.132085 0.543972 1.34299 0.120215 1.08935 6.68934 0.156973 1.08997 8.33425 0.138824 -6.3391 -9.06872 -0.825567 2.54903 -8.32158 -0.845544 58.7277 -3.80063 -2.3482 115.882 30.0492 1.95967 1.15171e-014 -5.96354e-016 -1.98785e-015 13.0069 28.0124 -4.05685 -7.67762e-007 2.81228e-006 -3.00631 8.02919 -4.95091 0.697485 -61.0831 -4.14552 2.73673 -106.845 24.5548 8.61157 2.38542e-015 -7.95139e-016 -1.59028e-015 -15.7112 40.8773 6.83135 4.94736e-006 7.78457e-007 2.99998 -8.02934 -4.95114 -0.697582 160.461 53.9877 22.1244 180 1.5257e-005 179.116 164.603 58.1747 -172.693 1.59745e-006 7.66181e-007 1.09449 -33.0475 75.6802 30.7164 8.35069 28.3289 -3.58804 -154.662 54.263 -25.6494 4.5067e-006 -1.99009e-005 -0.797532 -13.1794 -61.2886 -6.84385 5.41965e-008 -5.43316e-006 -1.16478 25.1421 74.0008 -26.4172 -8.62755 32.0942 3.71593 
47.9399 84.8351 16.6808 -0.691961 14.1174 0.140004 0.542777 1.33118 0.121269 1.08744 6.66573 0.159286 1.08802 8.31065 0.141166 -6.37023 -8.96769 -0.817875 2.58454 -8.34138 -0.839258 58.741 -3.79856 -2.34799 115.894 30.0843 2.15393 1.82882e-014 -1.59028e-015 -7.95139e-016 12.8936 27.5278 -3.9475 -7.67762e-007 2.81228e-006 -3.00631 8.02919 -4.95091 0.697485 -61.1085 -4.12751 2.72779 -106.843 24.5203 8.52416 8.54774e-015 -2.38542e-015 -3.18055e-015 -15.7103 40.5585 6.76718 4.94736e-006 7.78457e-007 2.99998 -8.02934 -4.95114 -0.697582 160.68 53.68 21.852 180 1.5257e-005 179.116 164.7 57.8273 -172.805 1.59745e-006 7.66181e-007 1.0861 -32.8439 75.6006 30.5273 8.35175 28.3443 -3.58867 -154.96 53.9753 -25.3035 4.5067e-006 -1.99009e-005 -0.797392 -13.1121 -60.9424 -6.7536 5.41965e-008 -5.43316e-006 -1.15274 25.0048 73.9196 -26.2857 -8.62888 32.1121 3.71671 
